# xmcd CD database file
#
# Track frame offsets:
#	150
#	18104
#	30976
#	42003
#	52306
#	60511
#	75128
#	85660
#	98388
#	117352
#	128317
#	147613
#	160336
#	170738
#	182320
#
# Disc length: 2587 seconds
#
# Revision: 0
# Processed by: cddbd v1.5.2PL0 Copyright (c) Steve Scherf et al.
# Submitted via: CDex 1.51
#
DISCID=a80a190f
DTITLE=louis prima - the call of the wildest
DYEAR=1900
DGENRE=Jazz
TTITLE0=when you're smilling - the sheik of araby
TTITLE1=autumn leaves 
TTITLE2=i've got the world on a string
TTITLE3=blow, red, blow
TTITLE4=the pump song
TTITLE5=there'll be no next time
TTITLE6=pennies from heaven
TTITLE7=the birth of the blues
TTITLE8=closest to the bone
TTITLE9=sentimental journey
TTITLE10=when the saint go marching in
TTITLE11=paper doll
TTITLE12=the happy wanderer
TTITLE13=until sunrise
TTITLE14=the dummy song
EXTD=
EXTT0=
EXTT1=
EXTT2=
EXTT3=
EXTT4=
EXTT5=
EXTT6=
EXTT7=
EXTT8=
EXTT9=
EXTT10=
EXTT11=
EXTT12=
EXTT13=
EXTT14=
PLAYORDER=
